# xmcd
#
# Track frame offsets:
#	150
#	24040
#	39983
#	56099
#	80500
#	97357
#	120801
#	140857
#	159644
#	177639
#	199004
#	223028
#
# Disc length: 3218 seconds
#
# Revision: 1
# Processed by: cddbd v1.5.2PL0 Copyright (c) Steve Scherf et al.
# Submitted via: audiograbber 1.83.01
#
DISCID=a80c900c
DTITLE=Saulo Laranjeira - Tuca Graça - Faróis do tempo
DYEAR=2006
DGENRE=Sertanejo
TTITLE0=Gira o coco
TTITLE1=Faróis do tempo
TTITLE2=Estrada Real
TTITLE3=Fonte do desejo
TTITLE4=Terra e mar
TTITLE5=Lua clareou
TTITLE6=Pedacinho de mel
TTITLE7=Maria Carolina
TTITLE8=Boa nova
TTITLE9=Nada pode separar
TTITLE10=Tambores da paz
TTITLE11=Calientar (instrumental)
EXTD=
EXTT0=
EXTT1=
EXTT2=
EXTT3=
EXTT4=
EXTT5=
EXTT6=
EXTT7=
EXTT8=
EXTT9=
EXTT10=
EXTT11=
PLAYORDER=
